<svg xmlns:xlink="http://www.w3.org/1999/xlink" xmlns="http://www.w3.org/2000/svg" width="243" height="65" viewBox="0 0 243 65" fill="none">
<path d="M97.7359 42.6942C99.9876 45.0514 102.196 47.3212 105.79 47.103C106.57 47.0593 107.349 46.8847 108.215 46.7538C108.215 47.7141 108.259 48.6744 108.172 49.6347C108.172 49.7657 107.869 49.9839 107.696 50.0276C104.491 50.726 101.503 50.2458 98.9484 48.1069C97.4761 46.8847 96.177 45.4442 94.8346 44.091C94.2716 43.5236 93.752 43.1743 92.8859 43.087C86.1306 42.4323 81.6271 37.7179 81.0642 30.8647C80.8043 27.6782 81.0209 24.5789 82.32 21.6106C84.3119 17.0709 87.8195 14.5828 92.7127 14.059C95.2243 13.7971 97.6493 13.9717 99.9876 14.9756C103.279 16.4598 105.487 18.9479 106.613 22.3527C108.129 26.8924 107.912 31.4322 106.05 35.8409C104.534 39.333 101.936 41.6029 98.2555 42.5632C98.0823 42.5632 97.9524 42.6069 97.7359 42.6942ZM104.231 28.5075C104.015 27.067 103.928 25.5829 103.582 24.1424C102.889 21.1741 101.287 18.817 98.4287 17.5947C94.2283 15.8487 88.1226 16.5471 85.4811 22.7892C83.8789 26.5869 83.9222 30.5155 85.4811 34.3131C86.8668 37.6743 89.3351 39.7259 93.0158 40.0751C97.8225 40.5553 101.85 38.3291 103.365 33.5711C103.928 31.956 104.101 30.2536 104.231 28.5075Z" fill="#A81E39"></path>
<path d="M241.446 38.1546C241.446 39.1586 241.446 40.0753 241.446 40.992C241.446 41.1666 241.23 41.3412 241.056 41.4721C239.324 42.6071 237.419 43.0436 235.427 43.0872C234.258 43.1309 233.045 43.0436 231.919 42.7817C229.365 42.2142 227.502 40.6428 226.507 38.2419C225.034 34.7062 224.948 31.1268 226.377 27.5474C228.195 23.095 232.785 20.9561 237.332 22.2656C239.324 22.8331 240.753 24.0989 241.706 25.9323C242.875 28.2022 242.918 30.6466 242.832 33.1784H228.628C228.758 34.0951 228.845 34.9681 229.061 35.7538C229.927 39.0277 232.742 40.7737 236.25 40.3372C238.025 40.1189 239.584 39.4642 241.013 38.4165C241.1 38.3729 241.23 38.2856 241.446 38.1546ZM239.584 30.5157C239.497 29.8609 239.497 29.2061 239.368 28.595C238.935 26.4998 237.549 25.0593 235.687 24.7101C232.179 24.0553 228.931 26.7617 228.758 30.5157H239.584Z" fill="#A81E39"></path>
<path d="M149.571 42.6069H146.41V39.6386C146.366 39.6386 146.323 39.5949 146.236 39.5949C146.106 39.7696 145.977 39.9442 145.89 40.1188C143.811 43.0871 139.524 44.091 136.407 42.214C134.415 41.0354 133.678 39.2021 133.765 36.9322C133.938 33.4838 135.887 31.3885 139.568 30.7774C141.56 30.4282 143.552 30.2099 145.544 29.9044C145.803 29.8607 146.063 29.8171 146.323 29.7734C146.973 26.5869 144.591 24.1861 141.257 24.6226C139.351 24.8408 137.662 25.5392 136.147 26.6742C136.06 26.7178 135.974 26.8051 135.887 26.8488C135.844 26.8488 135.8 26.8488 135.67 26.8924C135.67 25.8885 135.67 24.9281 135.67 23.9241C135.67 23.7932 135.844 23.6186 136.017 23.5313C138.875 21.9162 141.863 21.436 145.067 22.1781C147.579 22.7892 149.094 24.7099 149.441 27.5036C149.484 27.9401 149.571 28.4202 149.571 28.8567C149.571 33.3092 149.571 37.7179 149.571 42.1704C149.571 42.345 149.571 42.4323 149.571 42.6069ZM146.41 32.3925C145.457 32.5234 144.548 32.6107 143.681 32.7854C142.209 33.0473 140.737 33.2655 139.308 33.6584C138.702 33.833 138.052 34.2258 137.662 34.7497C136.103 36.8013 137.229 39.8132 139.741 40.337C142.512 40.9045 145.154 39.3767 146.063 36.6703C146.54 35.2735 146.41 33.8766 146.41 32.3925Z" fill="#A81E39"></path>
<path d="M204.824 22.3964C204.174 24.0552 203.568 25.6266 202.918 27.198C200.537 33.3092 198.155 39.4204 195.687 45.4879C195.124 46.8847 194.431 48.1943 193.565 49.4165C191.963 51.6864 189.711 52.4285 186.983 51.9483C186.853 51.9046 186.723 51.861 186.55 51.8173V49.1983C187.372 49.2419 188.195 49.4165 188.975 49.3292C190.057 49.2419 190.923 48.5435 191.443 47.5832C192.222 46.0117 192.915 44.3966 193.565 42.7379C193.651 42.5633 193.521 42.2577 193.435 42.0395C191.01 35.71 188.542 29.3806 186.073 23.0512C185.987 22.8329 185.9 22.6147 185.813 22.3528C186.939 22.3528 188.022 22.3528 189.105 22.3528C189.234 22.3528 189.451 22.6583 189.538 22.8329C190.837 26.4996 192.092 30.1663 193.348 33.833C193.998 35.6664 194.647 37.5434 195.254 39.4204C195.297 39.3767 195.34 39.3331 195.34 39.2894C197.246 33.9203 199.194 28.5076 201.099 23.1385C201.316 22.4837 201.619 22.2655 202.269 22.3528C203.135 22.4401 203.914 22.3964 204.824 22.3964Z" fill="#A81E39"></path>
<path d="M125.622 22.4404H128.74V42.6072H125.622V39.4644C125.449 39.6826 125.363 39.7699 125.276 39.8572C123.631 42.5199 121.206 43.4366 118.261 43.0874C114.623 42.6509 112.545 40.4247 112.285 36.5397C112.112 34.3135 112.155 32.0436 112.155 29.8174C112.155 27.4166 112.155 24.9721 112.155 22.484H115.316C115.316 22.7023 115.316 22.9205 115.316 23.1824C115.316 26.6745 115.273 30.2103 115.316 33.746C115.316 34.7937 115.403 35.8413 115.663 36.8453C116.486 40.2937 120.339 41.6469 123.198 39.5517C124.93 38.2858 125.579 36.4524 125.622 34.4008C125.666 30.6905 125.622 26.9801 125.622 23.3134C125.622 22.9642 125.622 22.7459 125.622 22.4404Z" fill="#A81E39"></path>
<path d="M222.666 22.4404C222.492 22.9642 222.449 23.4007 222.189 23.7499C218.508 28.9444 214.828 34.0953 211.104 39.2461C210.974 39.4207 210.844 39.5953 210.671 39.9009H222.362V42.5636H205.951C205.821 41.9961 205.951 41.5596 206.254 41.1231C209.934 36.0159 213.615 30.8651 217.296 25.7579C217.426 25.5833 217.556 25.4087 217.729 25.1031H207.033V22.3967L222.666 22.4404Z" fill="#A81E39"></path>
<path d="M184.559 22.3965V25.1029H179.535C179.535 25.3648 179.492 25.583 179.492 25.8013C179.492 29.3807 179.492 32.9164 179.492 36.4522C179.492 36.9324 179.535 37.4125 179.579 37.849C179.795 39.7697 181.138 40.73 183.086 40.3372C183.563 40.2498 183.996 40.0752 184.559 39.9006C184.559 40.6864 184.559 41.4721 184.559 42.2142C184.559 42.3451 184.342 42.5634 184.169 42.607C182.393 43.2181 180.575 43.3054 178.799 42.4761C177.284 41.734 176.634 40.3372 176.418 38.7657C176.331 38.1546 176.288 37.4998 176.288 36.8451C176.288 33.1783 176.288 29.5116 176.288 25.8449V25.0592H172.867V22.3528H176.288C176.288 20.956 176.331 19.6028 176.288 18.2933C176.244 17.5948 176.461 17.3329 177.11 17.1583C177.89 16.9837 178.626 16.6782 179.449 16.4163V22.3092L184.559 22.3965Z" fill="#A81E39"></path>
<path d="M158.88 42.607H155.762V12.8369H158.88V42.607Z" fill="#A81E39"></path>
<path d="M168.666 42.6072H165.548V22.4404H168.666V42.6072Z" fill="#A81E39"></path>
<path d="M169.229 15.1066C169.229 16.2852 168.32 17.2019 167.151 17.2019C165.982 17.2019 165.116 16.3288 165.072 15.1503C165.072 13.9717 165.982 13.055 167.151 13.0114C168.32 13.0114 169.229 13.928 169.229 15.1066Z" fill="#A81E39"></path>
<path d="M231.183 7.78802V7.08551H235.369V7.78802H233.681V12.4943H232.868V7.78802H231.183Z" fill="black"></path>
<path d="M236.294 7.08551H237.284L239.006 11.29H239.07L240.792 7.08551H241.782V12.4943H241.006V8.58032H240.955L239.36 12.4864H238.716L237.121 8.57768H237.071V12.4943H236.294V7.08551Z" fill="black"></path>
<path d="M28.277 0.00300986C31.2216 -0.0406414 33.7765 0.395871 36.1148 0.963337V1.4435C35.7251 1.96732 35.6385 3.18955 35.4653 3.93162C34.5992 7.38007 35.3787 12.0071 36.4613 14.5825C37.3706 16.8524 38.4965 18.9477 39.7956 20.8247C40.1853 21.3485 40.6617 21.8286 41.0514 22.3524C42.2639 24.0112 43.563 25.4953 44.8188 27.1104C45.5549 28.0708 46.5076 28.9001 47.2437 29.9041C48.3696 31.4319 49.7553 32.7414 50.8812 34.2256C51.2709 34.7494 51.8339 35.1423 52.1803 35.6224C52.7865 36.4518 53.6093 37.1502 54.2588 37.9796C54.6919 38.5907 55.2115 39.2018 55.7745 39.7256C55.0383 41.4717 54.2155 43.0868 53.3062 44.5709C53.0897 44.9201 52.6999 45.7932 52.3535 45.9241C52.0504 45.4876 51.574 45.1384 51.2709 44.7455C50.7513 44.0035 50.0584 43.436 49.5388 42.6939C49.3656 42.563 49.2357 42.3884 49.0625 42.2574C47.7201 40.4677 45.9446 39.0272 44.6022 37.2375C44.2558 36.801 43.7795 36.4518 43.4331 35.9716C42.9134 35.2732 42.134 34.7058 41.6143 34.0073L41.0947 33.6145C40.7916 33.3089 40.5317 32.9597 40.2719 32.6105C40.0121 32.3922 39.7523 32.1303 39.5358 31.9121C39.146 31.3883 38.713 30.9517 38.28 30.5152C38.1068 30.3406 37.9336 30.2097 37.7603 30.0351C37.3706 29.5113 36.851 28.9874 36.4179 28.5073C36.0282 28.1144 35.6385 27.7652 35.2488 27.3723C34.5126 26.412 33.5599 25.6263 32.7372 24.7533C31.568 23.5747 30.4421 22.2651 28.9698 21.3485C26.7613 19.9516 22.4743 18.7294 18.9668 19.7334C18.0141 19.9953 17.1047 20.3445 16.282 20.6937C15.8923 20.781 15.5025 20.912 15.1128 21.0429C14.3766 21.3485 13.5972 21.654 12.9043 22.0905C11.7785 22.789 10.6093 23.4437 9.52669 24.2295C8.14099 25.2334 6.79859 26.3247 5.4562 27.3287C4.02719 28.3763 2.85801 29.6859 1.47231 30.7335C1.16919 30.9517 0.433031 31.9121 0.173213 31.9121C0 31.6502 0.129909 31.0827 0.0866063 30.6898C0 29.9478 0 29.0311 0 28.2454C0 24.9279 0.779457 21.654 1.73213 19.2096C2.20846 18.031 2.51158 16.8524 3.11783 15.8048C3.98389 14.4079 4.76335 12.9674 5.67271 11.6579C6.10574 11.0468 6.66868 10.523 7.14502 9.95549C7.79457 9.12612 8.57402 8.2531 9.39678 7.64198C9.6133 7.42372 9.87312 7.16181 10.0896 6.94356C10.7825 6.41974 11.4753 5.80863 12.2115 5.28481C14.1601 3.93162 16.3253 2.79669 18.6637 1.83636C20.6556 1.00699 22.7775 0.788732 25.0725 0.221266C25.7221 0.0903123 26.4582 0.177615 27.1078 0.0466611C27.4975 -0.0406414 28.0171 0.177615 28.277 0.00300986Z" fill="#0C7EC1"></path>
<path d="M38.6691 1.74945C46.8101 4.76139 52.3962 10.5234 55.7306 18.4242C56.4234 20.0393 56.7265 21.829 57.2462 23.6624C57.2895 24.1425 57.3761 24.6227 57.4194 25.1029C57.939 27.3727 57.8091 31.8688 57.2895 34.0077C57.1163 34.6625 57.073 35.2736 56.8997 35.8411C56.8131 36.1466 56.8565 36.5832 56.6399 36.7578C56.4234 36.4086 56.077 36.2339 55.8605 35.9284C55.1243 34.9244 54.1717 34.095 53.4355 33.0911C53.219 32.8728 52.9592 32.6109 52.7427 32.3926C52.1364 31.6069 51.4003 30.9521 50.8373 30.1664C48.8887 27.5473 46.507 25.2338 44.5584 22.6148C43.7356 21.5235 42.653 20.5195 41.8303 19.4282C40.8776 18.1187 40.1847 16.6782 39.4919 15.1504C38.2361 12.2694 37.0669 7.72967 38.1928 3.75741C38.3227 3.01534 38.4093 2.36057 38.6691 1.74945Z" fill="#0A9F38"></path>
<path d="M20.9151 21.8726C24.2494 21.829 26.1981 22.6583 28.0168 24.0552C28.5364 24.579 29.0561 25.1028 29.5757 25.6266C30.2686 26.1504 30.8315 26.8489 31.4377 27.46C32.6069 28.6386 33.7328 29.7735 34.902 30.9521C35.4649 31.5195 36.0712 32.1743 36.6341 32.7418C37.0672 33.1783 37.5435 33.5711 37.8899 34.0513C38.3229 34.6188 38.9292 35.0116 39.3189 35.5791C39.622 35.841 39.8819 36.1029 40.1417 36.3648C40.8345 37.0633 41.614 37.8053 42.2202 38.6347C42.48 38.853 42.7399 39.1149 42.9564 39.3331C43.6925 40.2934 44.6452 41.0792 45.3814 42.0831C45.7278 42.4324 46.0742 42.7816 46.4206 43.1308C47.6331 44.7459 49.192 46.0991 50.4045 47.7578C50.7509 48.107 51.0541 48.4126 51.4005 48.7618C52.6563 50.4642 54.3451 51.8174 55.6009 53.5198C55.7741 53.6507 55.904 53.8253 56.0772 53.9563C56.5103 54.5238 57.1165 55.0039 57.5495 55.5714C58.9785 57.4484 60.8406 58.9762 62.2263 60.8532C62.6593 61.4206 63.2656 61.8572 63.6986 62.4683C64.3481 63.3413 65.4307 64.0834 66.037 65H57.6362C57.1165 64.1707 56.2071 63.5596 55.6442 62.7738C54.1719 60.8532 52.3099 59.2381 50.8809 57.2738C50.5344 56.7936 50.0148 56.4444 49.6684 56.0079C49.0621 55.1785 48.2827 54.4801 47.6331 53.6507C47.5032 53.5634 47.3733 53.4325 47.2434 53.3015C46.9836 52.996 46.6805 52.4285 46.2907 52.2539C46.1608 52.4285 45.5113 52.9087 45.2948 52.996L45.1648 52.9523C45.0349 53.0396 44.6452 53.4325 44.472 53.5634C43.8657 53.9563 43.2162 54.2182 42.5667 54.6111C41.6573 55.1785 40.618 55.5277 39.5787 55.9642C38.4096 56.4444 37.1105 56.8373 35.8114 57.1865C35.1185 57.4047 34.3391 57.4484 33.6462 57.623C32.8234 57.7103 32.0007 57.7976 31.1779 57.8849H30.2686C29.6623 58.0159 28.4931 58.0159 27.8869 57.8849H27.0208C26.5878 57.7976 25.9815 57.7976 25.5918 57.7103C24.6391 57.492 23.7298 57.5357 22.8204 57.2738C20.5687 56.619 18.5334 55.9642 16.5415 55.0912C15.5022 54.6111 14.4629 53.9563 13.5535 53.3452C9.48305 50.7697 6.62504 47.5832 4.07016 43.4363C3.03088 41.6903 2.25142 39.8133 1.55857 37.6744C1.34206 36.8886 0.995632 35.9283 0.865723 34.9243C1.21215 34.5751 1.60188 34.1823 1.9483 33.8331C2.59785 33.1783 3.2907 32.4362 4.02685 31.8688C4.37328 31.5195 4.6764 31.214 5.02282 30.8648C6.0621 30.079 6.97147 29.0751 8.01074 28.333C8.92011 27.6346 9.82947 26.9362 10.8254 26.2814C11.1719 26.0631 11.475 25.9758 11.8214 25.7576C12.2544 25.452 12.6875 25.0592 13.1205 24.7536C14.5928 23.7933 16.2816 23.0075 18.1004 22.3964C18.7932 22.2218 19.4861 22.0909 20.1789 21.9163C20.4387 21.9163 20.7419 22.0036 20.9151 21.8726Z" fill="#A81E39"></path>
</svg>
